
<svg xmlns="http://www.w3.org/2000/svg" viewBox="0 0 120 120" width="100" height="100">
  <g transform="translate(60,60)">
    <g transform="scale(0.5)">
      <path d="M 0,-110 L 12,-102 L 12,-90 L 4,-90 L -4,-90 L -12,-90 L -12,-102 L 0,-110 z" fill="#c49a6c" stroke="#a47c5c" stroke-width="1"/>
      <path d="M -12,-90 L -20,-82 L -20,-50 L 20,-50 L 20,-82 L 12,-90" fill="#f4e04d" stroke="#c49a6c" stroke-width="1"/>
      <path d="M -20,-82 L -40,-62 L -40,10 L -30,20 L -30,40 L -20,50" fill="#f4e04d" stroke="#c49a6c" stroke-width="1"/>
      <path d="M 20,-82 L 40,-62 L 40,10 L 30,20 L 30,40 L 20,50" fill="#f4e04d" stroke="#c49a6c" stroke-width="1"/>
      <path d="M -30,40 L -20,50 L -20,70 L -10,80 L 10,80 L 20,70 L 20,50 L 30,40" fill="#f4e04d" stroke="#c49a6c" stroke-width="1"/>
      <path d="M -10,80 L -10,90 L 10,90 L 10,80" fill="#f4e04d" stroke="#c49a6c" stroke-width="1"/>
      <path d="M -10,90 L -20,100 L -15,110 L 0,105 L 15,110 L 20,100 L 10,90" fill="#c49a6c" stroke="#a47c5c" stroke-width="1"/>
      <circle cx="0" cy="-65" r="8" fill="#e44d2e" stroke="#c42d0e" stroke-width="1"/>
      <path d="M -40,10 L -60,-10 L -80,-10 L -90,0 L -80,10 L -60,10 L -40,10" fill="#f4e04d" stroke="#c49a6c" stroke-width="1"/>
      <path d="M 40,10 L 60,-10 L 80,-10 L 90,0 L 80,10 L 60,10 L 40,10" fill="#f4e04d" stroke="#c49a6c" stroke-width="1"/>
      <path d="M -90,0 L -100,10 L -100,30 L -90,40 L -60,40 L -60,20 L -90,0" fill="#f4e04d" stroke="#c49a6c" stroke-width="1"/>
      <path d="M 90,0 L 100,10 L 100,30 L 90,40 L 60,40 L 60,20 L 90,0" fill="#f4e04d" stroke="#c49a6c" stroke-width="1"/>
      <path d="M -90,40 L -80,50 L -80,70 L -70,80 L -60,70 L -60,40" fill="#f4e04d" stroke="#c49a6c" stroke-width="1"/>
      <path d="M 90,40 L 80,50 L 80,70 L 70,80 L 60,70 L 60,40" fill="#f4e04d" stroke="#c49a6c" stroke-width="1"/>
    </g>
  </g>
</svg>
